<?xml version="1.0" standalone="no"?>
<!DOCTYPE svg PUBLIC "-//W3C//DTD SVG 20010904//EN"
 "http://www.w3.org/TR/2001/REC-SVG-20010904/DTD/svg10.dtd">
<svg version="1.0" xmlns="http://www.w3.org/2000/svg"
 width="512.000000pt" height="512.000000pt" viewBox="0 0 512.000000 512.000000"
 preserveAspectRatio="xMidYMid meet">
<metadata>
Created by potrace 1.14, written by Peter Selinger 2001-2017
</metadata>
<g transform="translate(0.000000,512.000000) scale(0.100000,-0.100000)"
fill="#000000" stroke="none">
<path d="M0 2560 l0 -2560 2560 0 2560 0 0 2560 0 2560 -2560 0 -2560 0 0
-2560z m3745 1648 c3 -13 -1 -52 -9 -88 -38 -165 -81 -475 -101 -732 l-7 -76
-116 -8 c-64 -5 -121 -9 -125 -9 -5 0 -10 88 -11 195 -3 221 -10 258 -65 310
-79 75 -214 94 -671 95 -315 0 -337 -1 -375 -20 -31 -15 -43 -29 -53 -60 -9
-26 -21 -226 -37 -595 -13 -305 -22 -556 -21 -557 2 -2 167 -4 367 -5 339 -1
380 1 593 26 126 15 235 25 242 22 20 -8 18 -20 -22 -186 l-35 -148 -492 2
c-369 1 -514 -2 -579 -13 l-88 -13 0 -37 c0 -20 -5 -265 -11 -546 -13 -587
-10 -633 46 -689 48 -48 94 -57 343 -63 230 -6 487 8 617 32 254 48 347 156
411 476 15 74 28 135 29 137 1 1 40 7 86 12 46 6 98 12 116 15 45 8 47 -11 19
-151 -29 -140 -90 -525 -107 -671 -8 -70 -17 -107 -28 -117 -13 -12 -49 -13
-216 -6 -376 16 -1380 33 -1580 26 -174 -5 -364 -21 -525 -42 l-46 -6 15 121
c15 117 16 122 41 127 263 54 337 109 374 276 11 51 15 292 20 1248 6 1216 4
1312 -32 1374 -35 60 -71 71 -219 68 -155 -3 -141 -19 -116 139 l16 105 721
-4 c738 -5 1061 3 1406 34 96 9 177 18 179 20 13 12 41 1 46 -18z"/>
</g>
</svg>
